<?xml version="1.0" standalone="no"?>
<!DOCTYPE svg PUBLIC "-//W3C//DTD SVG 20010904//EN"
 "http://www.w3.org/TR/2001/REC-SVG-20010904/DTD/svg10.dtd">
<svg version="1.0" xmlns="http://www.w3.org/2000/svg"
 width="150.000000pt" height="39.214286pt" viewBox="0 0 150.000000 39.214286"
 preserveAspectRatio="xMidYMid meet">
<metadata>
Created by potrace 1.16, written by Peter Selinger 2001-2019
</metadata>
<g transform="translate(0.000000,39.214286) scale(0.021429,-0.021429)"
fill="#000000" stroke="none">
<path d="M784 1527 c7 -35 42 -231 56 -312 5 -27 18 -104 30 -170 39 -221 51
-290 65 -370 21 -124 27 -145 39 -145 6 0 1198 -1 2649 -3 l2637 -2 0 21 c0
11 -16 108 -35 215 -19 107 -42 235 -51 284 -8 50 -22 124 -29 165 -7 41 -21
118 -30 170 -9 52 -20 113 -24 135 l-7 40 -2653 2 -2653 3 6 -33z m746 -206
c5 -11 10 -52 10 -91 l0 -71 26 20 c58 46 140 35 175 -23 26 -43 28 -260 3
-270 -35 -14 -44 12 -44 128 0 74 -4 116 -12 124 -20 20 -92 15 -122 -9 -25
-20 -26 -25 -26 -118 0 -103 -12 -140 -44 -128 -14 6 -16 31 -16 225 0 120 3
222 7 225 12 13 32 7 43 -12z m1908 -74 c1 -48 5 -87 8 -87 3 0 17 9 32 20 64
48 150 30 178 -35 9 -23 14 -72 14 -144 0 -91 -3 -110 -16 -115 -35 -13 -44
12 -44 121 0 57 -5 113 -10 124 -17 30 -90 26 -129 -7 -31 -26 -31 -26 -31
-129 0 -85 -3 -104 -16 -109 -9 -3 -20 -4 -25 0 -10 6 -12 437 -2 448 4 4 14
5 23 4 12 -3 16 -21 18 -91z m710 -133 c2 -198 1 -222 -14 -228 -40 -15 -44 7
-44 219 0 112 3 211 6 220 4 9 15 15 28 13 21 -3 21 -7 24 -224z m1222 207 c5
-11 10 -52 10 -91 l0 -71 30 21 c45 32 98 36 138 11 46 -29 53 -57 50 -190 -3
-108 -4 -116 -23 -116 -19 0 -20 8 -25 116 -3 77 -10 122 -19 132 -19 24 -86
22 -122 -4 -29 -20 -29 -22 -29 -118 0 -104 -11 -137 -43 -125 -15 6 -17 27
-17 223 0 120 3 221 7 224 12 13 32 7 43 -12z m-2112 -27 c40 -30 64 -82 58
-127 -10 -85 -59 -117 -188 -125 l-88 -5 0 -67 c0 -75 -16 -104 -45 -80 -12
10 -15 47 -15 209 0 144 3 200 13 210 9 10 41 12 125 9 92 -4 117 -8 140 -24z
m-2118 -121 c0 -11 6 -10 26 6 146 115 314 -114 185 -252 -32 -34 -45 -40 -87
-44 -36 -3 -59 1 -86 15 l-37 19 -3 -86 c-3 -79 -5 -86 -24 -89 -31 -4 -34 16
-34 240 0 167 2 199 16 213 12 12 19 13 30 4 8 -6 14 -18 14 -26z m776 -94
c26 -66 51 -116 55 -112 4 4 28 58 52 118 35 86 50 111 66 113 12 2 24 -3 26
-11 3 -7 -34 -110 -83 -228 -64 -153 -94 -215 -107 -217 -29 -6 -34 19 -14 70
10 27 19 57 19 67 0 10 -25 78 -55 151 -57 137 -64 165 -42 173 26 9 37 -8 83
-124z m444 118 c19 -7 35 -19 35 -27 0 -12 -16 -15 -74 -17 -52 -1 -78 -6 -90
-17 -25 -26 -3 -47 72 -71 78 -26 94 -37 102 -74 9 -40 -9 -78 -46 -97 -63
-32 -209 -1 -192 42 4 11 13 14 32 10 100 -24 155 -14 149 26 -2 17 -18 26
-71 43 -37 12 -76 30 -87 40 -22 20 -27 74 -9 106 23 43 108 60 179 36z m180
-157 c0 -127 -2 -149 -16 -154 -37 -14 -44 11 -44 155 0 113 3 140 16 154 12
12 19 13 30 4 11 -9 14 -45 14 -159z m321 149 c46 -23 52 -56 9 -51 -121 16
-128 15 -160 -16 -52 -53 -38 -146 27 -177 24 -12 47 -15 72 -11 65 12 84 11
88 -1 3 -7 -10 -22 -29 -33 -43 -27 -135 -24 -175 6 -52 39 -68 71 -68 137 0
75 27 120 89 148 53 24 97 24 147 -2z m969 -122 c23 -60 46 -105 51 -100 4 4
27 57 51 118 31 76 50 111 62 113 38 8 39 -15 6 -95 -132 -320 -153 -363 -170
-363 -27 0 -29 20 -9 73 11 26 19 55 19 65 0 9 -25 77 -55 149 -57 137 -64
168 -42 176 22 8 43 -25 87 -136z m623 129 c88 -37 122 -158 69 -249 -36 -61
-140 -85 -212 -49 -63 31 -97 135 -69 209 31 84 129 125 212 89z m353 -1 c56
-23 38 -40 -45 -41 -53 -1 -77 -6 -89 -18 -26 -26 -4 -48 69 -69 39 -11 73
-28 87 -43 38 -43 26 -101 -28 -129 -62 -32 -190 -8 -190 36 0 18 4 20 28 15
102 -25 152 -17 152 25 0 21 -20 32 -89 49 -77 20 -108 72 -80 134 23 51 114
71 185 41z m174 -12 c0 -8 3 -13 8 -11 58 30 90 39 121 34 107 -17 163 -144
109 -245 -41 -76 -124 -102 -201 -61 l-37 20 0 -85 c0 -70 -3 -87 -16 -92 -37
-14 -44 21 -44 233 0 168 3 205 15 218 18 17 45 11 45 -11z m748 -31 c11 -26
32 -80 48 -119 16 -40 31 -73 34 -73 3 0 27 54 54 120 38 94 53 120 68 120 10
0 21 -7 24 -15 7 -18 -166 -436 -184 -442 -7 -3 -19 0 -25 6 -9 9 -7 26 10 71
l22 60 -62 149 c-50 124 -59 152 -48 165 19 23 37 10 59 -42z"/>
<path d="M3040 1185 l0 -85 85 0 c78 0 88 2 110 25 30 29 33 73 8 104 -21 26
-76 40 -150 41 l-53 0 0 -85z"/>
<path d="M1166 1129 c-23 -18 -26 -27 -26 -86 0 -73 17 -97 78 -109 99 -19
164 105 96 185 -22 27 -32 31 -74 31 -33 0 -55 -6 -74 -21z"/>
<path d="M4315 1124 c-20 -22 -25 -37 -25 -81 0 -47 4 -59 29 -84 33 -33 75
-38 120 -15 56 29 70 122 25 175 -22 27 -32 31 -75 31 -41 0 -54 -5 -74 -26z"/>
<path d="M5006 1129 c-25 -20 -27 -26 -24 -87 3 -63 5 -67 38 -90 27 -18 44
-23 74 -19 55 8 78 35 84 99 4 47 1 58 -23 86 -23 28 -33 32 -75 32 -33 0 -55
-6 -74 -21z"/>
</g>
</svg>
