<?xml version="1.0" standalone="no"?>
<!DOCTYPE svg PUBLIC "-//W3C//DTD SVG 20010904//EN"
 "http://www.w3.org/TR/2001/REC-SVG-20010904/DTD/svg10.dtd">
<svg version="1.0" xmlns="http://www.w3.org/2000/svg"
 width="300.000000pt" height="82.000000pt" viewBox="0 0 300.000000 82.000000"
 preserveAspectRatio="xMidYMid meet">
<metadata>
Created by potrace 1.10, written by Peter Selinger 2001-2011
</metadata>
<g transform="translate(0.000000,82.000000) scale(0.100000,-0.100000)"
fill="#000000" stroke="none">
<path d="M1476 745 c-22 -8 -51 -22 -65 -33 -39 -27 -76 -108 -73 -159 1 -33
-6 -55 -28 -92 -17 -26 -30 -51 -30 -54 0 -3 14 -10 31 -16 20 -7 30 -16 28
-28 -1 -10 2 -42 6 -71 9 -63 28 -77 92 -68 43 6 44 5 60 -32 9 -20 19 -55 22
-77 5 -34 10 -40 34 -43 l27 -3 0 181 0 181 -30 29 c-24 23 -40 30 -71 30 -32
0 -42 4 -46 20 -3 11 -13 20 -23 20 -9 0 -25 9 -34 19 -16 18 -16 20 -1 29 16
8 16 10 1 15 -9 4 -16 11 -16 17 0 15 26 12 40 -5 9 -11 32 -15 79 -15 62 0
70 -3 96 -30 21 -22 32 -27 41 -19 13 10 34 5 34 -9 0 -4 -10 -13 -21 -20 -19
-12 -25 -10 -55 19 -32 31 -40 34 -104 35 -41 2 -68 -1 -65 -7 4 -5 34 -9 69
-9 57 0 65 -3 94 -33 l32 -33 0 -207 c0 -131 4 -207 10 -207 6 0 10 74 10 203
l0 202 33 35 c54 57 69 85 61 115 -6 23 -4 26 12 23 15 -3 18 -11 16 -43 -2
-22 -13 -50 -24 -61 -13 -15 -16 -24 -8 -29 18 -11 50 25 50 57 0 22 5 28 21
28 18 0 20 -4 14 -32 -5 -24 -28 -53 -81 -101 l-74 -69 0 -159 c0 -99 4 -159
10 -159 6 0 10 60 10 159 l0 159 40 36 c22 20 47 36 55 36 8 0 15 5 15 10 0 6
9 10 20 10 11 0 20 -4 20 -9 0 -13 -41 -41 -60 -41 -9 0 -28 -13 -43 -28 -27
-28 -27 -29 -27 -175 0 -81 3 -147 8 -147 4 0 5 57 4 126 -2 69 -1 137 2 150
6 24 49 49 66 39 15 -9 -1 -36 -19 -33 -14 3 -17 -14 -21 -132 -3 -74 -4 -136
-3 -138 2 -5 73 33 98 51 20 15 20 16 -3 40 -24 26 -41 80 -42 130 0 16 14 63
31 105 61 153 27 253 -106 313 -49 23 -162 25 -219 4z m102 -56 c23 -22 42
-44 42 -49 0 -21 -24 -8 -59 32 -25 27 -42 39 -50 34 -9 -6 2 -23 40 -62 61
-62 79 -59 79 12 0 40 -2 44 -24 44 -13 0 -26 7 -30 15 -4 11 2 15 22 15 40 0
52 -17 52 -75 0 -41 -5 -56 -23 -73 l-23 -22 -64 65 c-36 36 -69 65 -74 65 -5
0 -18 -7 -27 -16 -23 -21 -9 -54 23 -54 20 0 20 1 5 18 -20 22 -22 32 -4 31 6
0 25 -16 40 -35 l29 -34 -49 0 c-32 1 -55 7 -70 19 -24 20 -30 41 -12 41 5 0
8 4 5 9 -8 12 38 41 64 41 11 0 20 5 20 10 0 23 48 7 88 -31z m116 -46 c-8
-67 -19 -93 -39 -93 -20 0 -19 26 1 34 11 4 15 18 14 48 -3 63 -1 68 16 68 13
0 14 -9 8 -57z m-282 -143 c14 -10 43 -23 66 -28 71 -16 83 -36 87 -143 4
-111 -4 -209 -16 -209 -5 0 -8 3 -7 8 2 4 -5 28 -15 54 -19 49 -49 68 -108 68
-33 0 -46 19 -55 81 -4 24 -15 54 -26 66 -19 21 -19 22 -2 60 32 70 38 73 76
43z m348 -253 c0 -12 7 -33 16 -45 15 -21 15 -25 -1 -42 -10 -11 -22 -17 -26
-14 -12 7 -11 124 1 124 6 0 10 -10 10 -23z"/>
<path d="M330 697 c-64 -18 -113 -50 -144 -96 -101 -146 -59 -363 85 -435 45
-22 66 -26 140 -26 94 0 137 13 188 56 30 25 81 110 81 134 0 5 -23 10 -52 10
-51 0 -54 -1 -76 -41 -26 -45 -85 -78 -137 -79 -48 0 -116 40 -150 88 -27 39
-30 52 -30 116 0 61 4 78 25 109 36 52 86 77 154 77 72 0 108 -19 139 -71 23
-38 28 -41 72 -43 25 -1 49 2 51 6 7 11 -34 99 -58 126 -62 65 -190 96 -288
69z m209 -46 c81 -40 134 -128 76 -128 -17 0 -31 9 -44 31 -30 48 -57 66 -116
78 -68 13 -112 5 -162 -31 -100 -72 -112 -241 -25 -334 45 -48 97 -69 156 -64
73 6 106 23 143 72 25 33 37 42 53 38 44 -12 -9 -88 -90 -131 -13 -7 -57 -16
-98 -19 -60 -4 -82 -1 -127 17 -30 12 -55 26 -55 31 0 5 -6 9 -12 9 -22 0 -68
85 -79 144 -13 74 6 196 32 196 5 0 9 6 9 13 0 15 45 58 81 77 72 39 180 39
258 1z"/>
<path d="M762 693 c2 -5 37 -57 78 -117 41 -60 125 -181 185 -270 l111 -161
52 -3 52 -3 0 280 0 281 -50 0 -50 0 1 -167 c0 -174 10 -243 22 -168 4 22 7
100 7 173 0 133 0 133 23 130 22 -3 22 -3 25 -228 1 -124 0 -235 -3 -247 -4
-17 -13 -23 -33 -23 -33 0 -57 23 -103 100 -39 66 -151 224 -161 228 -5 2 -8
8 -8 12 0 5 -20 38 -45 73 -25 36 -45 70 -45 76 0 15 27 14 39 -1 56 -68 136
-190 133 -201 -1 -5 2 -6 8 -2 5 3 10 2 10 -4 0 -5 6 -16 13 -23 6 -7 25 -32
41 -56 16 -24 33 -45 38 -48 32 -20 5 26 -108 190 l-129 185 -53 1 c-30 0 -52
-3 -50 -7z"/>
<path d="M1872 636 c0 -36 2 -66 4 -66 2 0 20 9 41 21 32 18 50 20 134 17 87
-3 100 -6 123 -27 35 -33 35 -79 0 -120 l-26 -31 -136 0 -137 0 0 -145 0 -145
53 0 52 0 0 100 0 100 65 0 65 0 50 -100 50 -100 61 0 61 0 -23 38 c-12 20
-43 69 -68 107 l-46 71 30 19 c39 26 75 98 75 150 0 60 -37 125 -85 149 -34
18 -62 22 -192 24 l-152 4 1 -66z m284 25 c-4 -5 3 -7 13 -4 28 7 88 -56 97
-102 9 -51 -10 -109 -51 -150 -35 -34 -46 -77 -24 -90 6 -4 8 -14 5 -22 -3 -8
-2 -12 3 -8 5 3 16 -7 23 -22 8 -16 22 -40 31 -54 17 -25 17 -27 1 -33 -10 -4
-21 -3 -24 1 -14 15 -60 104 -60 116 -1 19 -45 64 -71 73 -40 13 -109 4 -130
-17 -15 -15 -19 -33 -19 -94 0 -41 -2 -75 -4 -75 -2 0 -11 -3 -20 -6 -14 -5
-16 8 -16 105 0 108 1 111 23 111 141 1 206 8 234 25 62 36 82 118 42 169 -36
45 -73 58 -163 56 -138 -4 -145 -3 -131 19 4 7 52 11 126 11 69 0 118 -4 115
-9z"/>
<path d="M2525 648 c-17 -51 -43 -125 -138 -385 l-45 -123 58 0 58 0 22 67
c12 38 39 118 60 178 21 61 43 132 50 158 14 52 31 57 41 11 4 -16 35 -105 69
-199 34 -93 65 -180 67 -192 5 -21 11 -23 69 -23 35 0 64 2 64 3 0 2 -6 17
-14 33 -14 28 -165 411 -191 484 l-13 35 -70 3 -70 3 -17 -53z m133 10 c11
-15 82 -190 87 -217 2 -10 8 -27 14 -37 20 -35 81 -197 81 -215 0 -11 -6 -19
-14 -19 -20 0 -44 36 -58 85 -6 22 -12 42 -13 45 -1 3 -7 19 -14 35 -7 17 -28
73 -47 125 -19 52 -42 105 -50 117 -16 25 -46 30 -61 11 -8 -11 -45 -101 -49
-118 0 -3 -3 -12 -6 -20 -3 -8 -23 -68 -44 -134 -45 -137 -55 -156 -77 -138
-13 11 -10 24 20 105 19 51 57 154 84 230 27 76 51 142 54 148 9 13 81 11 93
-3z"/>
<path d="M759 555 c-2 -2 -3 -96 -1 -210 l3 -206 51 3 50 3 -1 135 -2 135 -48
72 c-27 40 -50 71 -52 68z m64 -133 c9 -17 13 -57 12 -112 -4 -146 -3 -140
-25 -140 -21 0 -22 9 -22 135 0 162 5 179 35 117z"/>
<path d="M1465 520 c3 -5 16 -9 29 -8 12 1 38 -9 57 -22 l34 -23 -29 31 c-22
24 -38 32 -63 32 -20 0 -32 -4 -28 -10z"/>
<path d="M1665 460 c-16 -16 -26 -32 -24 -35 3 -3 18 9 34 25 16 16 26 32 24
35 -3 3 -18 -9 -34 -25z"/>
</g>
</svg>
